<?xml version="1.0" standalone="no"?>
<!DOCTYPE svg PUBLIC "-//W3C//DTD SVG 20010904//EN"
 "http://www.w3.org/TR/2001/REC-SVG-20010904/DTD/svg10.dtd">
<svg version="1.0" xmlns="http://www.w3.org/2000/svg"
 width="1000.000000pt" height="1000.000000pt" viewBox="0 0 1000.000000 1000.000000"
 preserveAspectRatio="xMidYMid meet">
<metadata>
Created by potrace 1.14, written by Peter Selinger 2001-2017
</metadata>
<g transform="translate(0.000000,1000.000000) scale(0.100000,-0.100000)"
fill="#000000" stroke="none">
<path d="M0 5000 l0 -5000 5000 0 5000 0 0 5000 0 5000 -5000 0 -5000 0 0
-5000z m2712 1854 l3 -477 198 236 c229 272 265 308 355 350 56 26 82 32 158
35 111 5 193 -18 276 -78 39 -28 244 -264 739 -849 376 -446 695 -832 709
-858 35 -66 35 -168 2 -233 -32 -61 -76 -105 -131 -131 -38 -19 -68 -23 -178
-27 l-133 -4 0 -1034 0 -1034 -285 0 -285 0 0 1035 0 1035 -715 0 -715 0 0
-1035 0 -1035 -285 0 -285 0 0 1034 0 1033 -102 5 c-118 5 -182 30 -236 92
-56 64 -67 93 -67 186 0 111 11 131 179 329 73 86 153 182 179 214 l47 58 0
814 0 815 285 0 285 0 2 -476z m4253 395 c278 -26 534 -105 647 -199 l32 -27
-90 -261 -89 -261 -30 20 c-95 65 -370 168 -545 205 -119 26 -379 26 -469 1
-169 -46 -313 -162 -385 -307 -109 -224 -79 -528 73 -730 101 -135 233 -215
793 -481 266 -126 379 -191 503 -287 196 -151 310 -311 384 -538 42 -129 62
-258 68 -439 8 -236 -21 -386 -109 -560 -157 -312 -470 -552 -845 -649 -196
-51 -450 -72 -668 -56 -215 16 -339 41 -512 101 -91 32 -315 142 -333 164 -8
9 20 89 97 284 60 149 112 271 116 271 5 0 29 -14 53 -31 111 -76 363 -176
552 -220 135 -31 351 -36 472 -11 282 58 481 229 556 478 14 44 18 92 18 189
0 149 -14 214 -73 340 -95 203 -267 325 -840 592 -348 162 -480 242 -633 382
-122 112 -240 309 -288 481 -66 239 -68 576 -4 767 107 321 348 575 666 702
226 91 501 115 883 80z"/>
<path d="M3402 6818 c-96 -16 -92 -12 -809 -862 -663 -785 -683 -810 -683
-850 0 -49 18 -79 57 -95 21 -8 409 -11 1506 -9 l1479 3 19 24 c29 35 34 69
16 105 -18 36 -1330 1593 -1373 1629 -60 50 -133 69 -212 55z"/>
</g>
</svg>
